<?xml version="1.0" encoding="utf-8"?>
<!-- Generator: Adobe Illustrator 28.2.0, SVG Export Plug-In . SVG Version: 6.00 Build 0)  -->
<svg version="1.1" id="Layer_1" xmlns="http://www.w3.org/2000/svg" xmlns:xlink="http://www.w3.org/1999/xlink" x="0px" y="0px"
	 viewBox="0 0 665.9 214.2" style="enable-background:new 0 0 665.9 214.2;" xml:space="preserve">
<g>
	<path d="M652.9,31.8c-4.3-8.5-11.2-15.4-19.8-19.8c-9.7-4.9-22.4-4.9-47.7-4.9h-55.2c-25.3,0-38,0-47.7,4.9
		c-8.5,4.3-15.4,11.2-19.8,19.8c-4.9,9.7-4.9,22.4-4.9,47.7v55.3c0,25.3,0,38,4.9,47.7c4.3,8.5,11.2,15.4,19.8,19.8
		c9.7,4.9,22.4,4.9,47.7,4.9h55.2c25.3,0,38,0,47.7-4.9c8.5-4.3,15.4-11.2,19.8-19.8c4.9-9.7,4.9-22.4,4.9-47.7V79.5
		C657.8,54.1,657.8,41.5,652.9,31.8L652.9,31.8z M563.3,154.2h-19c-1.4,0-2.3,0-2.8-1c-1.8-3.6-3.6-7.1-5.4-10.7
		c-1.8-3.5-3.7-7.1-5.7-10.8c-2-3.7-4-7.4-6-11.2c-1.8,3.7-3.8,7.4-5.7,11c-1.9,3.7-3.8,7.3-5.7,10.9s-3.8,7.2-5.8,10.8
		c-0.4,0.8-1,0.9-1.9,0.9H487c-0.7,0-0.8-0.5-0.4-1.2l25.9-43.6l-25.2-43.8c-0.4-0.6-0.1-1.3,0.7-1.2h18.9c0.8-0.1,1.6,0.3,2,1
		c1.6,3.7,3.4,7.4,5.4,11c2,3.7,4,7.3,6,10.9c2,3.6,4,7.2,5.7,10.9c1.8-3.8,3.6-7.4,5.4-11c1.8-3.6,3.7-7.2,5.6-10.8
		c1.9-3.6,3.8-7.2,5.6-10.8c0.2-0.8,0.8-1.2,1.6-1.1h17.6c0.7,0,1,0.9,0.7,1.4l-25,42.2l26.7,44.9
		C564.7,154,564.1,154.2,563.3,154.2L563.3,154.2z M627.3,150.7c-8.4,3.6-17.4,5.3-26.4,5.4c-11.8,0.2-24.2-4.7-30.5-15.5
		c-3-5.2-4.5-11.7-4.5-19.5c-0.1-6.3,1.5-12.5,4.5-18c7.8-14,23.6-19.3,38.7-17.9V58.1c0-0.6,0.3-1,0.8-1h16.9
		c0.5-0.1,0.9,0.4,0.8,0.8v81.3c0,3.4,0.3,6.7,0.5,10.1C628.2,149.9,627.8,150.4,627.3,150.7L627.3,150.7z"/>
	<path d="M584.9,120.3c-0.3,13.4,11.2,22.6,24.2,18.7v-37.6C596.8,98,584.9,107.4,584.9,120.3z"/>
</g>
<g>
	<path d="M203,31.8c-4.3-8.5-11.3-15.4-19.8-19.8c-9.7-4.9-22.3-4.9-47.7-4.9H80.3c-25.3,0-38,0-47.7,4.9
		c-8.5,4.3-15.4,11.3-19.8,19.8c-4.9,9.7-4.9,22.3-4.9,47.7v55.2c0,25.3,0,38,4.9,47.7c4.3,8.5,11.3,15.4,19.8,19.8
		c9.7,4.9,22.3,4.9,47.7,4.9h55.2c25.3,0,38,0,47.7-4.9c8.5-4.3,15.4-11.3,19.8-19.8c4.9-9.7,4.9-22.3,4.9-47.7V79.5
		C207.9,54.1,207.9,41.5,203,31.8L203,31.8z M108.8,113c-9.3,13.4-25.5,13.2-39.9,13.2v27.4c0.1,0.8-0.6,1.2-1.2,1.2H51.8
		c-0.7,0-1-0.3-1-1.1v-88c0-0.6,0.2-0.9,0.8-0.9c8.6,0,17.2-0.5,25.8-0.5c14,0,29.1,4.8,34.4,19.4c1.2,3.6,1.9,7.3,1.9,11.1
		C113.8,102.1,112.1,108.2,108.8,113L108.8,113z M143.4,156.2c-6.7,0.1-13.7-1-19.9-3.9c-0.6-0.3-1-1-0.9-1.6v-14.9
		c-0.1-0.6,0.6-1.1,1.1-0.7c6,3.6,13.2,5.4,20.1,5.5c3.1,0,9.2-0.3,9.1-4.8c0-4.3-7.3-6.3-10.2-7.4c-4.2-1.5-8.2-3.6-11.9-6.2
		c-5.1-3.7-8.3-9.5-8.2-16c0-14.6,13.8-21.2,26.3-21.2c5.8-0.1,12.1,0.4,17.5,2.8c0.8,0.2,0.9,1.1,0.9,1.8v13.9
		c0,0.9-0.9,1.2-1.6,0.8c-2.5-1.3-5.2-2.3-8-2.9c-3.6-0.8-17.6-3.8-17.6,3.6c0.1,4.1,6.6,6.1,9.5,7.3c10.1,3.5,21.6,9.7,21.3,22.2
		C171.3,150,156.2,156.2,143.4,156.2L143.4,156.2z"/>
	<path d="M87.9,82.8c-5.4-2.3-13-2.4-18.9-1.5V110c5.7,0.4,11.7,0.5,17.2-1.4c6.1-1.8,9.4-7,9.4-13.3C95.8,89.9,92.9,84.7,87.9,82.8
		z"/>
</g>
<g>
	<path d="M303.6,115.5h21.2c-3.5-11.9-7.4-23.6-10.6-35.6C310.8,91.8,307,103.8,303.6,115.5L303.6,115.5z"/>
	<path d="M427.9,31.8c-4.3-8.5-11.3-15.4-19.8-19.8c-9.7-4.9-22.3-4.9-47.7-4.9h-55.2c-25.3,0-38,0-47.7,4.9
		c-8.5,4.3-15.4,11.3-19.8,19.8c-4.9,9.7-4.9,22.3-4.9,47.7v55.2c0,25.3,0,38,4.9,47.7c4.3,8.5,11.3,15.4,19.8,19.8
		c9.7,4.9,22.3,4.9,47.7,4.9h55.2c25.3,0,38,0,47.7-4.9c8.5-4.3,15.4-11.3,19.8-19.8c4.9-9.7,4.9-22.3,4.9-47.7V79.5
		C432.9,54.1,432.9,41.5,427.9,31.8L427.9,31.8z M355.4,154.1H338c-0.6,0.1-1.2-0.4-1.3-1l-6.8-20.4h-31l-6.3,20.1
		c-0.2,0.8-0.9,1.3-1.6,1.2h-15.7c-0.9,0-1.2-0.5-0.9-1.5l26.8-79.3c0.3-0.8,0.5-1.8,0.8-2.8c0.4-1.8,0.5-3.7,0.5-5.6
		c-0.1-0.5,0.4-1,0.9-1h21.3c0.6,0,1,0.2,1.1,0.7l30.5,88.1C356.5,153.7,356.2,154.1,355.4,154.1L355.4,154.1z M383.7,152.7
		c0,0.9-0.4,1.4-1.1,1.4h-16.4c-0.8,0-1.2-0.5-1.2-1.4V87c0-0.8,0.4-1.2,1.1-1.2h16.5c0.7,0,1.1,0.4,1.1,1.2L383.7,152.7
		L383.7,152.7z M384.3,71.9c-0.5,1.4-1.2,2.6-2.2,3.6c-1,1-2.2,1.8-3.5,2.3s-2.8,0.8-4.2,0.7c-1.4,0.1-2.7-0.2-4-0.7
		c-1.3-0.5-2.4-1.3-3.4-2.3c-1-1-1.7-2.3-2.2-3.6c-0.5-1.4-0.7-2.8-0.6-4.2c0-1.4,0.2-2.8,0.7-4.1c0.5-1.3,1.3-2.5,2.3-3.5
		c1-1,2.2-1.7,3.4-2.2c1.3-0.5,2.6-0.8,4-0.7c3.2,0,5.8,1,7.6,3c0.9,1,1.6,2.2,2.1,3.5s0.7,2.7,0.6,4.1
		C385,69.2,384.7,70.6,384.3,71.9L384.3,71.9z"/>
</g>
</svg>
