
<svg id="Layer_1" xmlns="http://www.w3.org/2000/svg" xmlns:xlink="http://www.w3.org/1999/xlink" version="1.1" viewBox="0 0 800 800">
  <path id="github-_x5B__x23_142_x5D_" class="st0" d="M400,0C620.9,0,800,183.6,800,410.1s-114.5,334.8-273.3,389.1c-20.3,4-27.5-8.8-27.5-19.7s.5-57.7.5-112.6-12.8-63.2-27.2-75.9c89.1-10.2,182.7-44.8,182.7-202.4s-15.5-81.3-41.2-110.1c4.2-10.4,17.9-52.1-3.9-108.6,0,0-33.5-11-109.9,42.1-32-9.1-66.2-13.7-100.2-13.8-34,.2-68.2,4.7-100.1,13.8-76.4-53-110-42.1-110-42.1-21.7,56.5-8,98.2-3.9,108.6-25.6,28.7-41.2,65.3-41.2,110.1,0,157.1,93.4,192.3,182.2,202.7-11.4,10.2-21.8,28.3-25.4,54.8-22.8,10.5-80.7,28.6-116.4-34.1,0,0-21.2-39.4-61.3-42.3,0,0-39-.5-2.7,24.9,0,0,26.2,12.6,44.4,60,0,0,23.5,73.2,134.8,48.4.2,34.3.6,66.6.6,76.3s-7.4,23.5-27.3,19.7C114.6,745.1,0,591.3,0,410.1S179.1,0,400,0"/>
</svg>