<?xml version="1.0" encoding="UTF-8"?>
<svg id="Layer_1" data-name="Layer 1" xmlns="http://www.w3.org/2000/svg" viewBox="0 0 142 184.5">
  <polygon points="71 131 25.18 184.5 52.68 184.5 71 163.11 89.32 184.5 116.82 184.5 71 131"/>
  <polygon points="0 152.39 0 184.5 71 101.61 142 184.5 142 152.39 71 69.5 0 152.39"/>
  <polygon points="25.18 0 0 29.39 0 61.5 52.68 0 25.18 0"/>
  <polygon points="0 90.89 0 123 71 40.11 142 123 142 90.89 71 8 0 90.89"/>
  <polygon points="89.32 0 142 61.5 142 29.39 116.82 0 89.32 0"/>
</svg>